<svg width="153" height="42" viewBox="0 0 153 42" fill="none" xmlns="http://www.w3.org/2000/svg">
<g clip-path="url(#clip0_95_1317)">
<path d="M52.3651 28.4272C48.732 28.4272 45.7869 25.4113 45.7869 21.6903C45.7869 17.9703 48.732 14.9544 52.3651 14.9544C55.9982 14.9544 58.9431 17.9703 58.9431 21.6903C58.9431 25.4113 55.9982 28.4272 52.3651 28.4272ZM58.9639 29.2815C59.0546 30.3151 59.8805 31.6312 61.3115 31.6312H62.1487C62.4732 31.6312 62.7393 31.3648 62.7393 31.0398V12.605H62.7355C62.7188 12.2945 62.4624 12.0455 62.1487 12.0455H59.5545C59.2407 12.0455 58.9843 12.2945 58.967 12.605H58.9639V14.1029C57.3741 12.1414 54.868 11.3271 52.355 11.3271C46.6427 11.3271 42.0117 15.9668 42.0117 21.6903C42.0117 27.4144 46.6427 32.0541 52.355 32.0541C54.868 32.0541 57.6069 31.0776 58.9635 29.279L58.9639 29.2815ZM94.8566 28.4272C91.2237 28.4272 88.2782 25.4113 88.2782 21.6903C88.2782 17.9703 91.2237 14.9544 94.8566 14.9544C98.4897 14.9544 101.435 17.9703 101.435 21.6903C101.435 25.4113 98.4897 28.4272 94.8566 28.4272ZM101.455 29.2815C101.546 30.3151 102.372 31.6312 103.803 31.6312H104.641C104.965 31.6312 105.231 31.3648 105.231 31.0398V12.605H105.227C105.21 12.2945 104.954 12.0455 104.641 12.0455H102.046C101.732 12.0455 101.476 12.2945 101.459 12.605H101.455V14.1029C99.8656 12.1414 97.3595 11.3271 94.8465 11.3271C89.134 11.3271 84.5033 15.9668 84.5033 21.6903C84.5033 27.4144 89.134 32.0541 94.8465 32.0541C97.3595 32.0541 100.098 31.0776 101.455 29.279L101.455 29.2815Z" fill="#7F7F8A"/>
<path d="M141.512 28.2553C137.944 28.2553 135.051 25.299 135.051 21.6515C135.051 18.005 137.944 15.0487 141.512 15.0487C145.08 15.0487 147.973 18.005 147.973 21.6515C147.973 25.299 145.08 28.2553 141.512 28.2553ZM147.993 29.0928C148.082 30.1059 148.893 31.396 150.299 31.396H151.121C151.44 31.396 151.701 31.1349 151.701 30.8162V12.7458H151.698C151.681 12.4414 151.429 12.1973 151.121 12.1973H148.573C148.265 12.1973 148.013 12.4414 147.996 12.7458H147.993V14.214C146.432 12.2913 143.971 11.4932 141.502 11.4932C135.892 11.4932 131.344 16.0412 131.344 21.6515C131.344 27.2625 135.892 31.8105 141.502 31.8105C143.971 31.8105 146.661 30.8534 147.993 29.0903L147.993 29.0928Z" fill="#7F7F8A"/>
<path d="M128.03 29.3097L128.029 20.0594C128.029 14.8449 124.714 11.3271 119.427 11.3271C116.904 11.3271 114.595 12.7628 114.105 14.0192C113.947 13.0465 113.426 12.024 111.813 12.024H110.99C110.672 12.024 110.412 12.2826 110.412 12.5979V28.7398V28.7423V30.4445V30.476H110.415C110.432 30.7766 110.683 31.0184 110.99 31.0184H112.711H113.53C113.569 31.0184 113.607 31.0138 113.644 31.0064C113.661 31.0034 113.677 30.9969 113.693 30.9924C113.712 30.9865 113.732 30.982 113.75 30.9746C113.772 30.9654 113.793 30.9529 113.814 30.9412C113.824 30.9351 113.835 30.9305 113.845 30.9241C113.87 30.9079 113.893 30.8883 113.916 30.8684C113.92 30.8647 113.924 30.8623 113.928 30.8589C113.953 30.8347 113.976 30.8081 113.996 30.7803C114.06 30.6937 114.099 30.5887 114.105 30.476H114.108V30.4445V29.31V29.0119V19.9158C114.108 17.1155 116.396 14.8449 119.219 14.8449C122.041 14.8449 124.329 17.1155 124.329 19.9158L124.332 28.7426L124.333 28.7398C124.333 28.7475 124.334 28.7554 124.334 28.764V30.4445V30.476H124.337C124.354 30.7766 124.605 31.0184 124.912 31.0184H126.632H127.452C127.491 31.0184 127.529 31.0138 127.566 31.0064C127.581 31.0037 127.595 30.9979 127.61 30.9936C127.63 30.9878 127.652 30.9826 127.672 30.9746C127.692 30.966 127.712 30.9544 127.731 30.9431C127.743 30.9367 127.756 30.9318 127.767 30.9241C127.791 30.9088 127.812 30.8904 127.833 30.8718C127.839 30.8672 127.845 30.8635 127.85 30.8583C127.874 30.8354 127.895 30.8106 127.915 30.7842C127.916 30.7824 127.918 30.7809 127.919 30.779C127.982 30.693 128.02 30.5896 128.027 30.4776C128.027 30.4767 128.027 30.476 128.027 30.476H128.03V30.4445L128.03 29.3097ZM68.2519 26.641C70.0247 27.8435 71.9599 28.427 73.8197 28.427C75.5912 28.427 77.4223 27.5282 77.4223 25.9635C77.4223 23.8745 73.4315 23.5495 70.9243 22.7154C68.4164 21.8813 66.2564 20.1572 66.2564 17.3645C66.2564 13.092 70.1459 11.3271 73.7765 11.3271C76.0768 11.3271 78.4499 12.0697 79.9885 13.133C80.5186 13.5259 80.1958 13.9775 80.1958 13.9775L78.7268 16.0305C78.5621 16.2618 78.2732 16.4619 77.8588 16.2113C77.4445 15.961 75.9913 14.9543 73.7765 14.9543C71.5614 14.9543 70.2272 15.9557 70.2272 17.1966C70.2272 18.6846 71.9612 19.1526 73.9925 19.6598C77.5319 20.5936 81.3934 21.7162 81.3934 25.9635C81.3934 29.7282 77.7956 32.0548 73.8197 32.0548C70.8063 32.0548 68.241 31.214 66.0894 29.6685C65.6409 29.2296 65.9539 28.8218 65.9539 28.8218L67.4155 26.779C67.7128 26.3971 68.0878 26.5303 68.2519 26.641Z" fill="#7F7F8A"/>
<path d="M26.4664 13.3992C26.4664 17.406 23.2184 20.6543 19.2117 20.6543C15.205 20.6543 11.957 17.406 11.957 13.3992C11.957 9.39341 15.205 6.14502 19.2117 6.14502C23.2184 6.14502 26.4664 9.39341 26.4664 13.3992Z" fill="#7F7F8A"/>
<path d="M9.85519 21.748C5.86416 21.748 2.62891 24.9827 2.62891 28.9737C2.62891 32.9647 5.86416 36.2003 9.85519 36.2003C13.8462 36.2003 17.0818 32.9647 17.0818 28.9737C17.0818 24.9827 13.8462 21.748 9.85519 21.748Z" fill="#7F7F8A"/>
<path d="M28.4247 21.7471C24.5207 21.7471 21.3555 24.9823 21.3555 28.9737C21.3555 32.9644 24.5207 36.2 28.4247 36.2C32.3289 36.2 35.4942 32.9644 35.4942 28.9737C35.4942 24.9823 32.3289 21.7471 28.4247 21.7471Z" fill="#7F7F8A"/>
</g>
<defs>
<clipPath id="clip0_95_1317">
<rect width="153" height="42" fill="white"/>
</clipPath>
</defs>
</svg>
