<svg width="25" height="24" viewBox="0 0 25 24" fill="none" xmlns="http://www.w3.org/2000/svg">
<g clip-path="url(#clip0_139_3993)">
<path d="M18.5 0H6.5C3.18629 0 0.5 2.68629 0.5 6V18C0.5 21.3137 3.18629 24 6.5 24H18.5C21.8137 24 24.5 21.3137 24.5 18V6C24.5 2.68629 21.8137 0 18.5 0Z" fill="white"/>
<path d="M11 10H9.5V12H11V18H13.5V12H15.321L15.5 10H13.5V9.166C13.5 8.689 13.596 8.5 14.057 8.5H15.5V6H13.596C11.798 6 11 6.792 11 8.307V10Z" fill="#131933"/>
</g>
<defs>
<clipPath id="clip0_139_3993">
<rect width="24" height="24" fill="white" transform="translate(0.5)"/>
</clipPath>
</defs>
</svg>
