<svg width="97" height="20" viewBox="0 0 97 20" fill="none" xmlns="http://www.w3.org/2000/svg">
<g clip-path="url(#clip0_170_4307)">
<mask id="mask0_170_4307" style="mask-type:luminance" maskUnits="userSpaceOnUse" x="0" y="0" width="97" height="20">
<path d="M96.5093 0.0761719H0.994141V19.9246H96.5093V0.0761719Z" fill="white"/>
</mask>
<g mask="url(#mask0_170_4307)">
<path d="M24.9572 8.9782L18.5165 2.53752C18.4127 2.43987 18.2755 2.3855 18.1328 2.3855C17.9903 2.3855 17.8531 2.43987 17.7492 2.53752L16.4835 3.80326L21.6584 8.9782C21.709 9.02844 21.7492 9.0882 21.7766 9.15405C21.8042 9.21989 21.8182 9.2905 21.8182 9.36183C21.8182 9.43317 21.8042 9.50379 21.7766 9.56962C21.7492 9.63547 21.709 9.69524 21.6584 9.74548L16.3379 15.066L17.6036 16.3317C17.7074 16.4295 17.8446 16.4838 17.9873 16.4838C18.1298 16.4838 18.267 16.4295 18.3709 16.3317L24.9572 9.74548C25.0548 9.64161 25.1092 9.50441 25.1092 9.36183C25.1092 9.21927 25.0548 9.08207 24.9572 8.9782Z" fill="white"/>
<path d="M13.983 3.00518L13.5155 2.53752C13.4115 2.43987 13.2744 2.3855 13.1318 2.3855C12.9892 2.3855 12.852 2.43987 12.7481 2.53752L11.4824 3.80326L12.3225 4.64335L13.9719 6.29272L15.6184 4.64335L13.983 3.00518Z" fill="white"/>
<path d="M13.8284 12.574L12.1819 14.2234L11.3418 15.0635L12.6075 16.3292C12.7114 16.4268 12.8486 16.4811 12.9912 16.4811C13.1337 16.4811 13.2709 16.4268 13.3748 16.3292L13.8396 15.8615L15.489 14.2121L13.8284 12.574Z" fill="white"/>
<path d="M16.6573 8.97819C16.7549 9.08206 16.8093 9.21926 16.8093 9.36184C16.8093 9.50441 16.7549 9.6416 16.6573 9.74547L13.8262 12.5738L15.4756 14.2232L19.956 9.74268C20.0066 9.69244 20.0468 9.63267 20.0742 9.56682C20.1016 9.50099 20.1158 9.43037 20.1158 9.35904C20.1158 9.28772 20.1016 9.21709 20.0742 9.15125C20.0468 9.0854 20.0066 9.02563 19.956 8.9754L15.6324 4.65454L13.983 6.30392L16.6573 8.97819Z" fill="white"/>
<path d="M6.15244 9.13246L10.6329 4.65199L8.98353 3.00262L8.51309 2.53777C8.40922 2.44011 8.27202 2.38574 8.12944 2.38574C7.98688 2.38574 7.84968 2.44011 7.74581 2.53777L1.15392 9.13246C1.10329 9.1827 1.06311 9.24247 1.03568 9.3083C1.00826 9.37415 0.994141 9.44477 0.994141 9.51609C0.994141 9.58742 1.00826 9.65804 1.03568 9.72389C1.06311 9.78974 1.10329 9.84949 1.15392 9.89974L7.59459 16.3404C7.69846 16.438 7.83566 16.4925 7.97823 16.4925C8.12079 16.4925 8.258 16.438 8.36187 16.3404L8.83512 15.8727L10.4845 14.2234L6.15244 9.89974C6.10181 9.84949 6.06163 9.78974 6.0342 9.72389C6.00677 9.65804 5.99266 9.58742 5.99266 9.51609C5.99266 9.44477 6.00677 9.37415 6.0342 9.3083C6.06163 9.24247 6.10181 9.1827 6.15244 9.13246Z" fill="white"/>
<path d="M11.148 9.13223L13.1277 7.15523L11.4784 5.50586L10.6383 4.66577L6.15783 9.14624C6.1072 9.19648 6.06701 9.25624 6.03959 9.32208C6.01216 9.38793 5.99805 9.45854 5.99805 9.52987C5.99805 9.6012 6.01216 9.67183 6.03959 9.73766C6.06701 9.80351 6.1072 9.86328 6.15783 9.91352L10.4731 14.2232L11.3132 13.3831L12.9625 11.7337L11.1368 9.91071C11.0391 9.80685 10.9847 9.66964 10.9847 9.52707C10.9847 9.38451 11.0391 9.2473 11.1368 9.14344" fill="white"/>
<path d="M11.154 9.89931L12.9798 11.7223L14.9567 9.7453C15.0073 9.69506 15.0475 9.63529 15.075 9.56946C15.1025 9.50361 15.1165 9.43299 15.1165 9.36166C15.1165 9.29034 15.1025 9.21972 15.075 9.15387C15.0475 9.08802 15.0073 9.02826 14.9567 8.97802L13.1338 7.15503L11.154 9.13204C11.0563 9.2359 11.002 9.37311 11.002 9.51568C11.002 9.65824 11.0563 9.79546 11.154 9.89931Z" fill="white"/>
<path d="M30.1201 7.61176C30.1383 6.88288 30.2833 6.16273 30.5486 5.48355C30.7968 4.85761 31.1791 4.29367 31.6686 3.83138C32.1924 3.35365 32.8092 2.98945 33.4804 2.76165C34.2933 2.49484 35.1453 2.36704 36.0007 2.38362C36.9533 2.35283 37.903 2.50101 38.8011 2.82047C39.4448 3.05818 40.0385 3.41435 40.5512 3.87058C40.9437 4.22012 41.2553 4.65113 41.4641 5.13351C41.6152 5.48522 41.7152 5.85676 41.761 6.23682C41.769 6.30691 41.76 6.37791 41.7345 6.44374C41.7092 6.50958 41.6683 6.56829 41.6153 6.61486C41.5111 6.70953 41.3752 6.76152 41.2345 6.76047H39.6607C39.5378 6.76622 39.4169 6.72854 39.3191 6.65406C39.2433 6.59302 39.1813 6.51669 39.137 6.43005C39.1091 6.37963 39.0418 6.26482 38.9326 6.08841C38.7883 5.87949 38.6104 5.69593 38.4062 5.54515C38.119 5.33182 37.8019 5.16197 37.4653 5.0411C36.9967 4.87803 36.5022 4.80211 36.0063 4.81707C35.1573 4.77486 34.3236 5.05604 33.6737 5.60395C33.3808 5.87176 33.1466 6.19745 32.9862 6.56041C32.8257 6.92338 32.7422 7.31571 32.7412 7.71258C32.7132 8.20543 32.702 8.73468 32.702 9.29754C32.702 9.86039 32.702 10.3897 32.7412 10.8825C32.7775 11.9578 33.0912 12.7391 33.6737 13.2236C34.3379 13.7358 35.1631 13.9939 36.0007 13.9516C36.4462 13.9551 36.8903 13.9025 37.3225 13.7948C37.7006 13.7023 38.0546 13.5305 38.3613 13.2908C38.6621 13.0447 38.8961 12.7269 39.0418 12.3667C39.2149 11.9207 39.2978 11.4447 39.2855 10.9665V10.8013H36.9136C36.8445 10.8024 36.7759 10.789 36.7121 10.762C36.6485 10.735 36.5912 10.695 36.5439 10.6445C36.4947 10.5971 36.4555 10.5401 36.429 10.477C36.4025 10.4139 36.3892 10.3461 36.39 10.2776V8.8971C36.3913 8.75841 36.4469 8.62576 36.5448 8.52742C36.6425 8.42907 36.7749 8.37283 36.9136 8.37064H41.394C41.5327 8.37283 41.6651 8.42907 41.7629 8.52742C41.8607 8.62576 41.9163 8.75841 41.9178 8.8971V11.0337C41.9258 11.7662 41.8005 12.494 41.5481 13.1815C41.3056 13.8185 40.9227 14.3928 40.428 14.8617C39.8983 15.362 39.2684 15.7438 38.5797 15.9819C36.9033 16.5064 35.1065 16.5064 33.4301 15.9819C32.7613 15.7604 32.1481 15.3975 31.6323 14.9178C31.1485 14.4441 30.7738 13.8707 30.5345 13.2376C30.2743 12.5505 30.1324 11.8242 30.1145 11.0897C30.1145 10.8433 30.092 10.5717 30.0865 10.2748C30.0809 9.97801 30.0865 9.66997 30.0865 9.35915C30.0865 9.04831 30.0865 8.74588 30.0865 8.44625C30.0865 8.14662 30.1033 7.88619 30.1145 7.62856" fill="white"/>
<path d="M47.9026 8.21667C47.5736 8.2074 47.2462 8.26356 46.9392 8.38188C46.6911 8.47985 46.4639 8.62432 46.2699 8.80753C46.0941 8.9743 45.9516 9.17289 45.8499 9.39279C45.7601 9.58641 45.6987 9.79204 45.6679 10.0033H50.0587C50.0307 9.79543 49.9818 9.59093 49.9131 9.39279C49.8405 9.17451 49.7211 8.97474 49.5631 8.80753C49.3826 8.62096 49.1638 8.47573 48.9218 8.38188C48.5962 8.26049 48.2498 8.20435 47.9026 8.21667ZM43.142 11.1318C43.137 10.4348 43.2486 9.742 43.4724 9.08196C43.6761 8.46465 43.9996 7.89366 44.4245 7.40179C44.8427 6.92697 45.356 6.54534 45.9311 6.28167C46.5475 6.00626 47.2162 5.86773 47.8913 5.87563C48.5656 5.86701 49.2339 6.00259 49.8516 6.27327C50.4303 6.52543 50.9508 6.89437 51.3805 7.35698C51.8017 7.81332 52.1289 8.34807 52.3438 8.93074C52.5717 9.53673 52.6874 10.1791 52.6854 10.8265V11.7002C52.6832 11.8392 52.6271 11.9718 52.5289 12.0701C52.4305 12.1684 52.2979 12.2245 52.159 12.2267H45.6679C45.6613 12.5001 45.724 12.7708 45.8499 13.0136C45.9737 13.234 46.1438 13.4252 46.3483 13.5737C46.5639 13.7331 46.8069 13.8518 47.0652 13.9236C47.3388 13.9998 47.6213 14.0385 47.9053 14.0385C48.2467 14.048 48.5876 14.0056 48.9162 13.9125C49.1463 13.8427 49.3632 13.7349 49.5574 13.5933C49.6662 13.5093 49.7836 13.437 49.9075 13.3777C50.0256 13.3335 50.1513 13.3135 50.2772 13.3187H51.8313C51.9736 13.3208 52.1097 13.3769 52.2122 13.4757C52.2638 13.5214 52.3038 13.5789 52.3292 13.643C52.3545 13.7073 52.3643 13.7765 52.3578 13.8452C52.3141 14.0994 52.2104 14.3394 52.0554 14.5454C51.828 14.8735 51.5434 15.1581 51.2153 15.3855C50.7847 15.6849 50.313 15.9208 49.8151 16.0855C49.1972 16.2871 48.5495 16.3817 47.8997 16.3655C47.2275 16.3729 46.5607 16.2444 45.9396 15.9875C45.3605 15.7478 44.8421 15.3825 44.4218 14.9178C43.9973 14.4319 43.6736 13.8664 43.4697 13.2544C43.2417 12.5683 43.13 11.849 43.1392 11.1262" fill="white"/>
<path d="M57.3409 12.5322C57.3223 12.8817 57.4375 13.2251 57.6629 13.4928C57.8757 13.7336 58.2734 13.854 58.8586 13.854H60.0431C60.1818 13.8555 60.3144 13.911 60.4128 14.0088C60.5112 14.1066 60.5673 14.239 60.5696 14.3776V15.6602C60.5673 15.7992 60.5113 15.9318 60.413 16.03C60.3148 16.1283 60.182 16.1845 60.0431 16.1867H58.6037C57.3847 16.1867 56.4513 15.8917 55.8035 15.3017C55.1557 14.7118 54.829 13.8082 54.8233 12.591V8.41025H53.5297C53.461 8.41113 53.3929 8.39763 53.3296 8.37063C53.2665 8.34362 53.2096 8.3037 53.1628 8.25343C53.1121 8.20693 53.072 8.15016 53.0449 8.0869C53.0179 8.02366 53.0046 7.95537 53.006 7.8866V6.60126C53.0051 6.53257 53.0186 6.46444 53.0457 6.40127C53.0726 6.33809 53.1125 6.28127 53.1628 6.23442C53.21 6.1847 53.267 6.14514 53.3301 6.11819C53.3931 6.09122 53.4611 6.07741 53.5297 6.07761H54.815V2.90769C54.8171 2.76948 54.873 2.63754 54.9707 2.53979C55.0685 2.44207 55.2005 2.38619 55.3386 2.38403H56.8172C56.9554 2.38619 57.0873 2.44207 57.185 2.53979C57.2828 2.63754 57.3386 2.76948 57.3409 2.90769V6.07761H59.8611C59.9953 6.08539 60.1218 6.14372 60.2147 6.24087C60.3077 6.33802 60.3604 6.46679 60.3624 6.60126V7.8866C60.3602 8.0248 60.3044 8.15675 60.2066 8.25449C60.1089 8.35222 59.9769 8.40809 59.8387 8.41025H57.3184L57.3409 12.5322Z" fill="white"/>
<path d="M70.1084 11.1124L67.969 5.57058L65.8323 11.1124H70.1084ZM69.0387 2.57708C69.1238 2.57087 69.2093 2.58235 69.2898 2.61078C69.3703 2.63921 69.444 2.684 69.5064 2.74229C69.6316 2.88739 69.7267 3.05585 69.7864 3.23794L74.5469 15.5256C74.5597 15.5693 74.5663 15.6145 74.5665 15.6601C74.5643 15.799 74.5082 15.9316 74.4098 16.0299C74.3116 16.1281 74.179 16.1843 74.04 16.1865H72.6398C72.5425 16.1966 72.444 16.1873 72.3502 16.1589C72.2564 16.1305 72.1693 16.0837 72.0938 16.0213C72.0023 15.929 71.93 15.8196 71.881 15.6993L71.0409 13.543H64.8998L64.0597 15.6993C64.0107 15.8196 63.9384 15.929 63.847 16.0213C63.7714 16.0837 63.6843 16.1305 63.5905 16.1589C63.4968 16.1873 63.3983 16.1966 63.3009 16.1865H61.9007C61.7623 16.1836 61.6303 16.1271 61.5326 16.029C61.435 15.9307 61.3792 15.7985 61.3771 15.6601C61.376 15.6144 61.3825 15.569 61.3967 15.5256L66.1572 3.23794C66.2169 3.05585 66.312 2.88739 66.4372 2.74229C66.4996 2.684 66.5733 2.63921 66.6538 2.61078C66.7342 2.58235 66.8198 2.57087 66.9049 2.57708H69.0387Z" fill="white"/>
<path d="M82.8865 11.675C82.9257 11.3139 82.9257 10.9496 82.8865 10.5885C82.8108 9.7484 82.5504 9.13794 82.1108 8.7711C81.6585 8.39573 81.0855 8.19678 80.4978 8.21104C79.9121 8.19258 79.3403 8.39216 78.8932 8.7711C78.6684 8.97735 78.4866 9.22605 78.3583 9.50287C78.2299 9.7797 78.1577 10.0792 78.1455 10.3841C78.1158 10.6293 78.1026 10.8763 78.1063 11.1233C78.1025 11.3704 78.1156 11.6174 78.1455 11.8626C78.1792 12.4705 78.4472 13.0416 78.8932 13.456C79.3345 13.8474 79.9083 14.0557 80.4978 14.0385C81.0855 14.0527 81.6585 13.8537 82.1108 13.4784C82.5504 13.1115 82.8108 12.5039 82.8865 11.661V11.675ZM81.0858 16.3795C80.7232 16.3834 80.3614 16.3448 80.0078 16.2647C79.7189 16.2001 79.4374 16.1063 79.1677 15.9846C78.9531 15.8767 78.7512 15.7452 78.5656 15.5926C78.4203 15.4777 78.2846 15.3513 78.1596 15.2146V19.3534C78.1574 19.4923 78.1012 19.6251 78.003 19.7233C77.9047 19.8216 77.772 19.8776 77.6331 19.8799H76.1573C76.0184 19.8776 75.8858 19.8216 75.7875 19.7233C75.6893 19.6251 75.6331 19.4923 75.6309 19.3534V6.60087C75.6338 6.46241 75.6903 6.33047 75.7884 6.2328C75.8867 6.13514 76.0189 6.07936 76.1573 6.07722H77.6331C77.7716 6.07936 77.9039 6.13514 78.002 6.2328C78.1003 6.33047 78.1567 6.46241 78.1596 6.60087V7.04891C78.2846 6.91223 78.4203 6.78581 78.5656 6.67087C78.7553 6.5215 78.9609 6.39376 79.1789 6.29004C79.4487 6.1684 79.7302 6.07456 80.019 6.01001C80.3727 5.92979 80.7345 5.89126 81.0971 5.89519C81.7044 5.88641 82.3057 6.01567 82.8557 6.27323C83.3669 6.5154 83.8233 6.85938 84.197 7.28414C84.5726 7.71524 84.8692 8.20909 85.0735 8.74309C85.2868 9.29258 85.408 9.87352 85.4319 10.4625C85.4459 10.6557 85.4515 10.8825 85.4515 11.1429C85.4515 11.4034 85.4515 11.6302 85.4319 11.8234C85.408 12.4124 85.2868 12.9933 85.0735 13.5427C84.8692 14.0768 84.5726 14.5706 84.197 15.0017C83.8233 15.4265 83.3669 15.7705 82.8557 16.0126C82.3013 16.2681 81.6961 16.3935 81.0858 16.3795Z" fill="white"/>
<path d="M93.872 11.675C93.911 11.3139 93.911 10.9496 93.872 10.5885C93.7936 9.74839 93.5359 9.13793 93.0934 8.77109C92.6416 8.39481 92.0684 8.19576 91.4805 8.21103C90.8947 8.19257 90.3229 8.39215 89.876 8.77109C89.6511 8.97734 89.4692 9.22604 89.3409 9.50287C89.2127 9.77969 89.1403 10.0792 89.1282 10.3841C89.0998 10.6294 89.0867 10.8763 89.089 11.1233C89.0866 11.3703 89.0998 11.6172 89.1282 11.8626C89.1619 12.4705 89.4299 13.0416 89.876 13.456C90.3171 13.8474 90.891 14.0557 91.4805 14.0385C92.0684 14.0537 92.6416 13.8546 93.0934 13.4784C93.5359 13.1115 93.7936 12.5039 93.872 11.661V11.675ZM92.0629 16.3654C91.7003 16.3693 91.3386 16.3307 90.9849 16.2507C90.6961 16.1857 90.4147 16.0919 90.1448 15.9707C89.9277 15.867 89.7229 15.7392 89.5343 15.5899C89.3882 15.4749 89.2515 15.3484 89.1255 15.2117V19.3534C89.1258 19.4225 89.1122 19.4908 89.0853 19.5543C89.0582 19.618 89.0185 19.6753 88.9686 19.723C88.9215 19.7729 88.8646 19.8125 88.8014 19.8395C88.7384 19.8665 88.6704 19.8802 88.6018 19.8799H87.1232C86.9846 19.8776 86.8522 19.8214 86.7544 19.723C86.6566 19.6247 86.601 19.4921 86.5996 19.3534V6.60086C86.6017 6.46265 86.6575 6.33072 86.7553 6.23298C86.8531 6.13524 86.985 6.07938 87.1232 6.07721H88.6018C88.7398 6.08007 88.8713 6.13616 88.9689 6.23375C89.0665 6.33134 89.1226 6.46288 89.1255 6.60086V7.04891C89.2515 6.91226 89.3882 6.78585 89.5343 6.67088C89.7229 6.52148 89.9277 6.39373 90.1448 6.29003C90.4147 6.16883 90.6961 6.07501 90.9849 6.01001C91.3386 5.92993 91.7003 5.8914 92.0629 5.8952C92.6711 5.88638 93.2734 6.01563 93.8243 6.27324C94.3349 6.51645 94.7912 6.8603 95.1657 7.28413C95.5404 7.71534 95.8361 8.20922 96.0394 8.74309C96.2527 9.29257 96.3737 9.87351 96.3978 10.4625C96.4118 10.6557 96.4174 10.8825 96.4174 11.1429C96.4174 11.4034 96.4174 11.6302 96.3978 11.8234C96.3737 12.4124 96.2527 12.9933 96.0394 13.5427C95.8361 14.0767 95.5404 14.5705 95.1657 15.0017C94.7912 15.4256 94.3349 15.7694 93.8243 16.0126C93.2734 16.2703 92.6711 16.3995 92.0629 16.3907" fill="white"/>
</g>
</g>
<defs>
<clipPath id="clip0_170_4307">
<rect width="95.5207" height="19.8485" fill="white" transform="translate(0.990234 0.0756836)"/>
</clipPath>
</defs>
</svg>
