<svg width="144" height="50" viewBox="0 0 144 50" fill="none" xmlns="http://www.w3.org/2000/svg">
<g clip-path="url(#clip0_95_1339)">
<path d="M45.5362 21.6178H31.8428C31.1954 21.6178 30.6657 22.1673 30.6854 22.8147C30.6854 22.9325 30.705 23.0502 30.7442 23.1679L34.04 31.7031C34.1578 31.9974 34.0008 32.3309 33.7065 32.429C33.6281 32.4487 33.5496 32.4683 33.4711 32.4683L29.2533 32.2132C29.0571 32.1936 28.8805 32.2917 28.7627 32.4487L25.4865 37.0988C25.31 37.3735 24.9568 37.452 24.7019 37.2755C24.7019 37.2755 24.7019 37.2755 24.6822 37.2755L19.8365 33.9791C19.6403 33.8417 19.3853 33.8417 19.2088 33.9791L12.4994 38.5312C12.2443 38.7078 11.8912 38.6489 11.7147 38.3938C11.6165 38.2565 11.597 38.08 11.6362 37.9229L13.4999 31.2322C13.5784 30.9575 13.441 30.6631 13.1664 30.565L9.61554 29.1131C9.32121 28.9954 9.18389 28.6814 9.30162 28.3871C9.3213 28.3282 9.36048 28.289 9.39976 28.2302L12.5386 24.3452C12.6956 24.149 12.6956 23.8743 12.5582 23.6781L9.92938 19.852C9.75286 19.5969 9.81173 19.2437 10.0667 19.0671C10.1452 19.0082 10.2433 18.9691 10.361 18.9691L14.4612 18.6551C14.7751 18.6355 14.9909 18.3804 14.9909 18.0664L14.677 12.3175C14.6574 12.0035 14.9124 11.7288 15.2263 11.7092C15.3047 11.7092 15.3833 11.7288 15.4617 11.7484L20.5428 13.8479C20.7586 13.9461 21.0136 13.8872 21.1706 13.691L24.6626 9.76672C24.8784 9.53131 25.2315 9.51171 25.4669 9.72753C25.5258 9.78641 25.565 9.84519 25.6043 9.92375L27.7034 15.3391C27.9388 15.9082 28.6058 16.1829 29.1747 15.9474C29.2533 15.9082 29.3513 15.8689 29.4102 15.81L37.6498 9.68825C38.1402 9.31549 38.2579 8.62872 37.8851 8.11858C37.6498 7.78502 37.2378 7.60843 36.8258 7.66729L31.3916 8.39328C31.1365 8.43251 30.9012 8.27554 30.803 8.0401L27.9388 0.701826C27.7034 0.132816 27.056 -0.141878 26.4871 0.0739533C26.3302 0.132817 26.1928 0.230922 26.0751 0.368269L19.8758 7.09828C19.7188 7.27487 19.4638 7.31412 19.248 7.23564L11.0868 3.78233C10.5179 3.54687 9.85092 3.80195 9.59595 4.39058C9.53708 4.50831 9.5174 4.64566 9.5174 4.783L9.22316 13.2005C9.20357 13.4947 8.98778 13.7106 8.69348 13.7498L1.23861 14.2403C0.610827 14.2796 0.159613 14.8093 0.198848 15.4373C0.218466 15.6335 0.277321 15.8296 0.39503 15.9866L5.3584 23.3052C5.49573 23.5211 5.49573 23.7958 5.31917 23.992L0.277321 29.7802C-0.134659 30.2511 -0.0758044 30.9575 0.375411 31.3499C0.473501 31.4284 0.571593 31.4873 0.669683 31.5461L6.49625 34.0576C6.75128 34.1557 6.88861 34.45 6.81014 34.7051L3.12195 49.1266C2.965 49.7348 3.33774 50.3431 3.92628 50.5C4.25979 50.5785 4.5933 50.5196 4.86795 50.3234L18.7379 40.3755C18.9341 40.2382 19.1892 40.2382 19.3853 40.3755L25.7023 44.8099C26.2124 45.1631 26.9186 45.0454 27.2718 44.5352L27.2914 44.5156L31.2347 38.4527C31.3523 38.2761 31.5682 38.178 31.784 38.2173L41.2203 39.3553C41.9854 39.473 42.7505 38.8255 42.4758 38.1191L38.5522 27.9358C38.4345 27.6415 38.5914 27.3079 38.8857 27.1902L46.0659 23.7958C47.1253 23.266 46.7526 21.6178 45.5362 21.6178Z" fill="#7F7F8A"/>
<path d="M143.807 21.6378H133.173C132.957 21.6378 132.781 21.8144 132.781 22.0302V26.7393C132.781 26.9551 132.957 27.1317 133.173 27.1317H137.725C137.94 27.1317 138.117 27.2886 138.117 27.5044V27.5241C138.077 29.9571 137.568 34.3129 133.173 34.3129C129.583 34.3129 128.131 29.9768 128.131 24.8753C128.131 18.832 129.623 15.104 132.957 15.104C135.37 15.104 136.175 17.1642 136.41 17.9294C136.469 18.0864 136.606 18.2041 136.783 18.2041H142.315C142.531 18.2041 142.708 18.0275 142.708 17.8117V17.7921C142.492 14.7704 139.902 9.47272 133.075 9.47272C128.308 9.47272 123.835 12.3767 122.403 19.558V10.2968C122.403 10.1987 122.305 10.1007 122.206 10.1007H116.361C116.262 10.1007 116.164 10.1791 116.164 10.2968V26.8177C116.164 26.9355 116.066 27.0139 115.949 26.9943C115.87 26.9943 115.812 26.9551 115.791 26.8766L108.121 10.1987C108.101 10.1399 108.023 10.081 107.945 10.081H102.765C102.667 10.081 102.569 10.1594 102.569 10.2772V19.5383C100.646 13.6716 95.428 9.45312 88.6405 9.45312C81.0676 9.45312 75.4569 14.6919 74.1817 21.6378H63.5879C63.4899 21.6378 63.3917 21.7359 63.3917 21.834V26.9355C63.3917 27.0336 63.4702 27.1121 63.5879 27.1317H68.5317C68.6494 27.1317 68.7279 27.2102 68.7279 27.3279C68.7082 29.7021 68.2962 34.2933 63.7645 34.2933C60.1744 34.2933 58.7423 29.9571 58.7423 24.8556C58.7423 18.8124 60.2332 15.0844 63.5683 15.0844C66.1383 15.0844 66.8838 17.4193 67.0603 18.0275C67.08 18.1256 67.1584 18.1845 67.2565 18.1845H73.142C73.24 18.1845 73.3185 18.106 73.3381 18.0079V17.9883C73.2204 15.0059 70.67 9.47272 63.6861 9.47272C57.8987 9.47272 52.543 13.7501 52.543 24.8164C52.543 32.4294 55.5249 39.9442 63.7841 39.9442C69.9049 39.9442 73.8089 35.2156 74.6721 29.5254C76.5162 35.5883 81.7935 39.9442 88.6991 39.9442C95.3694 39.9442 100.686 35.7061 102.628 29.8001V39.1594C102.628 39.2575 102.726 39.3556 102.824 39.3556H108.671C108.769 39.3556 108.867 39.2771 108.867 39.1594V22.8936C108.867 22.7758 108.965 22.6974 109.083 22.7169C109.161 22.7169 109.22 22.7562 109.239 22.8347L116.871 39.2575C116.89 39.3163 116.969 39.3752 117.048 39.3752H122.227C122.324 39.3752 122.422 39.2967 122.422 39.179V29.8983C123.56 35.4706 126.777 39.9835 133.173 39.9835C140.137 39.9835 144.238 33.8421 144.238 27.1317V22.0891C144.219 21.8536 144.042 21.6574 143.807 21.6378ZM88.6204 33.8224C83.6965 33.8224 80.2829 30.0356 80.2829 24.6987C80.2829 19.3618 83.6965 15.5749 88.6204 15.5749C93.5448 15.5749 96.9578 19.3618 96.9578 24.6987C96.9578 30.0356 93.5247 33.8224 88.6204 33.8224Z" fill="#7F7F8A"/>
</g>
<defs>
<clipPath id="clip0_95_1339">
<rect width="144" height="50" fill="white"/>
</clipPath>
</defs>
</svg>
