<svg width="153" height="46" viewBox="0 0 153 46" fill="none" xmlns="http://www.w3.org/2000/svg">
<g clip-path="url(#clip0_95_1343)">
<mask id="mask0_95_1343" style="mask-type:luminance" maskUnits="userSpaceOnUse" x="0" y="1" width="153" height="44">
<path d="M152.726 1.50732H0.25V44.7347H152.726V1.50732Z" fill="white"/>
</mask>
<g mask="url(#mask0_95_1343)">
<path d="M16.7623 8.66284V20.8562H5.56574V8.66284H0.25V37.7693H5.56574V25.972H16.7623V37.7693H22.078V8.66284H16.7623Z" fill="#7F7F8A"/>
<path d="M39.0914 28.3621C39.0914 29.5285 38.6281 30.6473 37.8033 31.4722C36.9787 32.297 35.8601 32.7604 34.6938 32.7604C33.5274 32.7604 32.4089 32.297 31.5841 31.4722C30.7594 30.6473 30.2961 29.5285 30.2961 28.3621V15.8953H25.2539V28.3621C25.2539 30.8636 26.2474 33.2628 28.0161 35.0316C29.7847 36.8006 32.1834 37.7942 34.6847 37.7942C37.1858 37.7942 39.5847 36.8006 41.3532 35.0316C43.1218 33.2628 44.1155 30.8636 44.1155 28.3621V15.8953H39.0914V28.3621Z" fill="#7F7F8A"/>
<path d="M76.4499 17.1781C76.4499 14.6227 78.1402 13.8126 79.992 13.8126C81.4843 13.8126 83.4559 14.9483 84.7451 16.3263L88.0476 12.4347C86.3989 10.2049 83.0548 8.66284 80.3175 8.66284C74.8482 8.66284 70.892 11.8668 70.892 17.1781C70.892 27.0322 82.935 23.9064 82.935 29.4209C82.935 31.1217 81.2838 32.6248 79.3929 32.6248C76.4108 32.6248 75.4445 31.1661 74.0746 29.624L70.4102 33.4349C72.754 36.3132 75.6451 37.7745 79.1091 37.7745C84.3049 37.7745 88.4852 34.5315 88.4852 29.4625C88.4852 18.5222 76.4421 21.9214 76.4421 17.1781" fill="#7F7F8A"/>
<path d="M150.955 33.12C147.974 33.12 147.128 31.8306 147.128 29.856V21.1169H151.759V16.6885H147.128V10.8459L142.016 13.1408V30.9423C142.016 35.4956 145.157 37.7904 149.465 37.7904C150.14 37.8027 150.816 37.7487 151.481 37.6289L152.727 33.0366C152.165 33.0756 151.52 33.1147 150.955 33.1147" fill="#7F7F8A"/>
<path d="M58.2838 16.041C55.7862 16.041 54.0438 16.7652 52.3587 18.4192V8.83862H47.3086V26.5958C47.3086 33.2434 52.1139 37.7966 57.513 37.7966C63.5033 37.7966 68.7722 33.1627 68.7722 26.9214C68.7722 20.7583 63.9227 16.0436 58.2838 16.0436V16.041ZM58.2527 32.7145C57.1194 32.7145 56.0116 32.3785 55.0694 31.7489C54.127 31.1191 53.3927 30.224 52.959 29.1769C52.5253 28.1299 52.4118 26.9777 52.6329 25.866C52.8541 24.7544 53.3997 23.7332 54.2011 22.9317C55.0024 22.1303 56.0233 21.5845 57.1348 21.3634C58.2463 21.1423 59.3984 21.2557 60.4454 21.6895C61.4924 22.1232 62.3873 22.8578 63.0168 23.8001C63.6465 24.7426 63.9825 25.8505 63.9825 26.9839C63.9825 28.5038 63.3788 29.9614 62.3043 31.0362C61.2297 32.1109 59.7724 32.7145 58.2527 32.7145Z" fill="#7F7F8A"/>
<path d="M113.116 26.6552C113.116 20.4035 107.857 15.78 101.857 15.78C96.4575 15.78 91.6523 20.3332 91.6523 26.9808V44.7484H96.7024V35.1548C98.3848 36.8062 100.13 37.533 102.625 37.533C108.264 37.533 113.113 32.8209 113.113 26.6552H113.116ZM108.334 26.5927C108.334 27.7261 107.998 28.834 107.368 29.7765C106.739 30.7188 105.844 31.4534 104.797 31.8871C103.75 32.3209 102.598 32.4343 101.486 32.2132C100.375 31.9921 99.3538 31.4463 98.5525 30.6449C97.7512 29.8434 97.2055 28.8223 96.9844 27.7106C96.7634 26.5989 96.8767 25.4468 97.3104 24.3997C97.7441 23.3526 98.4786 22.4575 99.4208 21.8277C100.363 21.1981 101.471 20.8621 102.604 20.8621C104.124 20.8621 105.581 21.4657 106.656 22.5404C107.73 23.6153 108.334 25.0728 108.334 26.5927Z" fill="#7F7F8A"/>
<path d="M129.433 15.5352V10.4611C130.104 10.1477 130.672 9.65038 131.07 9.02691C131.469 8.40342 131.683 7.67947 131.686 6.93932V6.82209C131.686 5.78583 131.275 4.79201 130.542 4.05924C129.809 3.32648 128.816 2.91483 127.78 2.91483H127.662C126.626 2.91483 125.633 3.32648 124.9 4.05924C124.167 4.79201 123.756 5.78583 123.756 6.82209V6.93932C123.759 7.67947 123.973 8.40342 124.371 9.02691C124.77 9.65038 125.338 10.1477 126.009 10.4611V15.5352C124.081 15.8301 122.267 16.6291 120.747 17.8511L106.834 7.01226C106.933 6.65482 106.985 6.28632 106.991 5.91561C106.992 5.04484 106.735 4.19315 106.253 3.46831C105.771 2.74346 105.084 2.17801 104.28 1.84346C103.476 1.50892 102.591 1.42032 101.737 1.58887C100.883 1.75743 100.098 2.17556 99.4813 2.79039C98.8648 3.40521 98.4443 4.1891 98.2733 5.04291C98.1022 5.89672 98.1882 6.78208 98.5203 7.58702C98.8525 8.39197 99.4158 9.08031 100.139 9.565C100.862 10.0497 101.713 10.3089 102.584 10.31C103.345 10.3066 104.092 10.1036 104.751 9.72128L118.453 20.3829C117.222 22.2427 116.579 24.4304 116.61 26.6606C116.64 28.8909 117.341 31.0604 118.622 32.8861L114.455 37.0539C114.118 36.9462 113.767 36.8892 113.413 36.8846C112.699 36.885 112 37.0976 111.406 37.4949C110.812 37.8924 110.349 38.4571 110.075 39.1178C109.802 39.7783 109.731 40.505 109.871 41.2061C110.01 41.9072 110.354 42.5512 110.86 43.0567C111.365 43.5622 112.009 43.9064 112.71 44.046C113.411 44.1856 114.138 44.1143 114.798 43.8408C115.459 43.5676 116.023 43.1045 116.421 42.5104C116.818 41.9162 117.03 41.2176 117.031 40.5027C117.026 40.149 116.969 39.7978 116.862 39.4608L120.985 35.3373C122.329 36.372 123.892 37.0852 125.555 37.4223C127.217 37.7595 128.935 37.7117 130.576 37.2824C132.217 36.8531 133.738 36.0539 135.023 34.9459C136.308 33.8378 137.322 32.4506 137.988 30.8901C138.653 29.3296 138.953 27.6375 138.864 25.9432C138.775 24.2489 138.3 22.5975 137.474 21.1154C136.648 19.6334 135.494 18.3599 134.101 17.3928C132.707 16.4255 131.11 15.7901 129.433 15.5352ZM127.725 32.222C126.597 32.2209 125.495 31.8855 124.558 31.2582C123.62 30.6309 122.89 29.7397 122.459 28.6974C122.028 27.655 121.916 26.5083 122.136 25.4021C122.357 24.296 122.9 23.28 123.698 22.4827C124.495 21.6853 125.512 21.1422 126.618 20.9223C127.724 20.7022 128.87 20.8152 129.912 21.2468C130.954 21.6782 131.845 22.409 132.472 23.3467C133.099 24.2842 133.433 25.3868 133.434 26.5147C133.434 28.0276 132.833 29.4786 131.763 30.5485C130.694 31.6183 129.243 32.2193 127.73 32.2193" fill="#7F7F8A"/>
</g>
</g>
<defs>
<clipPath id="clip0_95_1343">
<rect width="153" height="45" fill="white" transform="translate(0 0.5)"/>
</clipPath>
</defs>
</svg>
