<svg width="25" height="24" viewBox="0 0 25 24" fill="none" xmlns="http://www.w3.org/2000/svg">
<g clip-path="url(#clip0_139_3997)">
<path d="M18.5 0H6.5C3.18629 0 0.5 2.68629 0.5 6V18C0.5 21.3137 3.18629 24 6.5 24H18.5C21.8137 24 24.5 21.3137 24.5 18V6C24.5 2.68629 21.8137 0 18.5 0Z" fill="white"/>
<path d="M8.99 7.75C8.99 8.44 8.435 9 7.75 9C7.065 9 6.51 8.44 6.51 7.75C6.51 7.06 7.065 6.5 7.75 6.5C8.435 6.5 8.99 7.06 8.99 7.75ZM9 10H6.5V18H9V10ZM12.991 10H10.507V18H12.992V13.8C12.992 11.465 16.006 11.274 16.006 13.8V18H18.5V12.934C18.5 8.994 14.039 9.138 12.991 11.078V10Z" fill="#131933"/>
</g>
<defs>
<clipPath id="clip0_139_3997">
<rect width="24" height="24" fill="white" transform="translate(0.5)"/>
</clipPath>
</defs>
</svg>
