<svg width="216" height="66" viewBox="0 0 216 66" fill="none" xmlns="http://www.w3.org/2000/svg">
<path d="M33 0C39.7831 14.5342 51.4658 26.2169 66 33C51.4658 39.7831 39.7831 51.4658 33 66C26.2169 51.4658 14.5342 39.7831 0 33C14.5342 26.2169 26.2169 14.5342 33 0Z" fill="#4E2FFF"/>
<path d="M89.95 44H84.85V15.85H96.15C99.2833 15.85 101.717 16.6333 103.45 18.2C105.183 19.7667 106.05 22.1333 106.05 25.3C106.05 28.0667 105.15 30.2333 103.35 31.8C101.583 33.3667 99.1833 34.15 96.15 34.15H89.95V44ZM95.45 20H89.95V30.4H95.45C97.25 30.4 98.7 29.9667 99.8 29.1C100.9 28.2333 101.45 26.9333 101.45 25.2C101.45 23.4333 100.9 22.1333 99.8 21.3C98.7333 20.4333 97.2833 20 95.45 20ZM108.032 44V23.45H112.782L113.132 29.15C113.332 28.2833 113.715 27.4167 114.282 26.55C114.882 25.65 115.698 24.9167 116.732 24.35C117.798 23.75 119.165 23.45 120.832 23.45H121.582V29.15H120.832C117.965 29.15 115.965 29.6167 114.832 30.55C113.698 31.45 113.132 32.9833 113.132 35.15V44H108.032ZM127.105 21.2C126.005 21.2333 125.272 20.9833 124.905 20.45C124.572 19.8833 124.405 19.2167 124.405 18.45C124.405 17.7167 124.589 17.0833 124.955 16.55C125.322 16.0167 126.039 15.75 127.105 15.75C128.139 15.75 128.822 16.0167 129.155 16.55C129.522 17.0833 129.705 17.7167 129.705 18.45C129.705 19.2167 129.522 19.8667 129.155 20.4C128.822 20.9 128.139 21.1667 127.105 21.2ZM124.505 44V23.45H129.605V44H124.505ZM142.786 44.5C140.453 44.5 138.52 44.05 136.986 43.15C135.453 42.25 134.303 41.0167 133.536 39.45C132.77 37.85 132.386 36.0333 132.386 34C132.353 30.9333 133.203 28.4167 134.936 26.45C136.703 24.45 139.32 23.45 142.786 23.45C146.153 23.45 148.703 24.4167 150.436 26.35C152.203 28.2833 153.086 30.8333 153.086 34C153.086 35.9667 152.72 37.75 151.986 39.35C151.253 40.95 150.12 42.2167 148.586 43.15C147.053 44.05 145.12 44.5 142.786 44.5ZM142.786 40.2C144.253 40.2 145.37 39.8833 146.136 39.25C146.936 38.6167 147.47 37.8167 147.736 36.85C148.003 35.85 148.136 34.85 148.136 33.85C148.136 32.8167 148.003 31.8 147.736 30.8C147.47 29.8 146.936 28.9833 146.136 28.35C145.37 27.7167 144.253 27.4 142.786 27.4C141.286 27.4 140.136 27.7333 139.336 28.4C138.57 29.0333 138.036 29.85 137.736 30.85C137.47 31.8167 137.336 32.8167 137.336 33.85C137.336 34.85 137.47 35.85 137.736 36.85C138.036 37.8167 138.57 38.6167 139.336 39.25C140.136 39.8833 141.286 40.2 142.786 40.2ZM155.95 44V23.45H160.7L161.05 29.15C161.25 28.2833 161.633 27.4167 162.2 26.55C162.8 25.65 163.616 24.9167 164.65 24.35C165.716 23.75 167.083 23.45 168.75 23.45H169.5V29.15H168.75C165.883 29.15 163.883 29.6167 162.75 30.55C161.616 31.45 161.05 32.9833 161.05 35.15V44H155.95ZM175.023 21.2C173.923 21.2333 173.19 20.9833 172.823 20.45C172.49 19.8833 172.323 19.2167 172.323 18.45C172.323 17.7167 172.507 17.0833 172.873 16.55C173.24 16.0167 173.957 15.75 175.023 15.75C176.057 15.75 176.74 16.0167 177.073 16.55C177.44 17.0833 177.623 17.7167 177.623 18.45C177.623 19.2167 177.44 19.8667 177.073 20.4C176.74 20.9 176.057 21.1667 175.023 21.2ZM172.423 44V23.45H177.523V44H172.423ZM187.998 44C186.365 44 185.132 43.6 184.298 42.8C183.498 42 183.098 40.7 183.098 38.9V27.05H179.998V23.45C180.965 23.45 181.715 23.35 182.248 23.15C182.782 22.95 183.165 22.4833 183.398 21.75C183.632 21.0167 183.748 19.8333 183.748 18.2H187.848V23.45H192.548V27.05H187.848V40H192.648V44H187.998ZM193.562 53.55V49.6H196.712C197.212 49.6 197.645 49.55 198.012 49.45C198.379 49.35 198.745 49.0833 199.112 48.65C199.479 48.25 199.895 47.5833 200.362 46.65L201.712 43.65L193.712 23.45H198.962L204.212 38.4L209.862 23.45H215.112L205.012 47.15C204.212 49.0167 203.479 50.4 202.812 51.3C202.145 52.2333 201.395 52.8333 200.562 53.1C199.762 53.4 198.729 53.55 197.462 53.55H193.562Z" fill="white"/>
<circle cx="33" cy="34" r="9" fill="black"/>
</svg>
