<svg width="197" height="60" viewBox="0 0 197 60" fill="none" xmlns="http://www.w3.org/2000/svg">
<g clip-path="url(#clip0_95_1314)">
<path d="M43.3195 24.5074H24.2741C24.1776 24.5079 24.0821 24.5274 23.9932 24.5648C23.9043 24.6023 23.8236 24.6569 23.7558 24.7256C23.688 24.7943 23.6344 24.8756 23.5982 24.9651C23.5619 25.0545 23.5436 25.1502 23.5443 25.2467V27.3736C23.5443 27.7812 23.8703 28.1129 24.2741 28.1129H43.3195C43.416 28.1124 43.5115 28.0929 43.6004 28.0554C43.6894 28.018 43.77 27.9634 43.8378 27.8947C43.9056 27.826 43.9592 27.7446 43.9955 27.6552C44.0318 27.5658 44.05 27.4701 44.0493 27.3736V25.2467C44.05 25.1502 44.0318 25.0545 43.9955 24.9651C43.9592 24.8756 43.9056 24.7943 43.8378 24.7256C43.77 24.6569 43.6894 24.6023 43.6004 24.5648C43.5115 24.5274 43.416 24.5079 43.3195 24.5074ZM30.6295 33.5117H11.5821C11.4858 33.5125 11.3906 33.5322 11.3019 33.5697C11.2131 33.6073 11.1327 33.662 11.0651 33.7306C10.9975 33.7993 10.9441 33.8806 10.9079 33.9699C10.8718 34.0592 10.8535 34.1547 10.8543 34.251V36.378C10.8543 36.7855 11.1803 37.1173 11.5821 37.1173H30.6314C30.7277 37.1165 30.823 37.0968 30.9117 37.0593C31.0004 37.0217 31.0809 36.967 31.1484 36.8984C31.216 36.8297 31.2694 36.7484 31.3056 36.6591C31.3418 36.5699 31.36 36.4743 31.3593 36.378V34.2491C31.36 34.1526 31.3417 34.0569 31.3054 33.9675C31.2691 33.8781 31.2156 33.7967 31.1478 33.7281C31.08 33.6594 30.9993 33.6048 30.9104 33.5673C30.8215 33.5299 30.726 33.5122 30.6295 33.5117ZM13.3146 26.9736C13.484 27.0176 13.6639 26.9929 13.8151 26.9048C13.9663 26.8168 14.0767 26.6725 14.122 26.5035C16.3208 19.5218 23.4097 15.3912 30.4741 16.9721C30.6396 17.0055 30.8117 16.974 30.9546 16.884C31.0975 16.794 31.2003 16.6525 31.2417 16.4887L31.8218 14.2993C31.8445 14.2114 31.8496 14.1199 31.8366 14.03C31.8235 13.9402 31.7927 13.8538 31.7459 13.7761C31.6993 13.6989 31.6375 13.632 31.5641 13.5795C31.4908 13.5271 31.4076 13.4901 31.3195 13.4709C22.3881 11.433 13.4131 16.6935 10.7026 25.5538C10.6526 25.7264 10.673 25.9118 10.7595 26.0694C10.8024 26.1469 10.8605 26.215 10.9301 26.2697C10.9998 26.3244 11.0797 26.3645 11.1651 26.3879L13.3146 26.9736ZM41.5814 34.6453C41.4113 34.6 41.2301 34.6238 41.0775 34.7115C40.9248 34.7993 40.813 34.9438 40.7664 35.1136C38.5696 42.0991 31.4787 46.2373 24.4143 44.6582C24.2485 44.6238 24.0757 44.6549 23.9323 44.745C23.7888 44.8351 23.6858 44.9772 23.6448 45.1416L23.0761 47.3197C23.0534 47.4076 23.0483 47.4991 23.0613 47.5889C23.0744 47.6788 23.1052 47.7651 23.152 47.8429C23.1986 47.9206 23.2607 47.988 23.3343 48.0408C23.408 48.0936 23.4917 48.1308 23.5803 48.15C32.5098 50.1821 41.4848 44.9217 44.1971 36.0652C44.2221 35.9797 44.23 35.8902 44.2202 35.8017C44.2105 35.7132 44.1833 35.6275 44.1403 35.5496C44.0974 35.4717 44.0392 35.4033 43.9691 35.3486C43.8991 35.2938 43.8187 35.2539 43.7328 35.2311L41.5814 34.6453ZM37.5934 20.5454C38.67 20.5454 39.5438 19.6621 39.5438 18.5702C39.5438 17.4783 38.67 16.593 37.5915 16.593C36.5149 16.593 35.643 17.4783 35.643 18.5702C35.643 19.6621 36.5149 20.5454 37.5934 20.5454ZM17.3197 45.026C18.3982 45.026 19.272 44.1407 19.272 43.0507C19.272 41.9588 18.3982 41.0735 17.3197 41.0735C16.243 41.0735 15.3692 41.9588 15.3692 43.0507C15.3692 44.1407 16.243 45.026 17.3216 45.026H17.3197ZM91.8184 27.2276C92.5248 26.4383 93.3921 25.8095 94.3618 25.3834C95.3315 24.9574 96.3812 24.744 97.4403 24.7576C99.4912 24.7576 101.091 25.4021 102.101 26.6362V25.6125C102.107 25.4723 102.164 25.3392 102.262 25.2388C102.36 25.1384 102.492 25.0777 102.632 25.0685H105.339C105.627 25.0874 105.856 25.3206 105.871 25.6125V40.8347C105.957 42.9786 105.303 45.0868 104.019 46.806C102.56 48.6031 100.344 49.513 97.4347 49.513C93.3898 49.513 90.1978 46.9197 89.6728 43.2156C89.6598 43.0829 89.6933 42.9498 89.7676 42.8391C89.842 42.7284 89.9525 42.6471 90.0803 42.609L92.7226 41.9796H92.7643C92.8332 41.9689 92.9036 41.9721 92.9714 41.9891C93.0391 42.006 93.1027 42.0363 93.1585 42.0782C93.2722 42.1635 93.3481 42.2905 93.367 42.4327C93.478 43.4288 93.9575 44.3473 94.7112 45.0078C95.4649 45.6684 96.4384 46.023 97.4403 46.0022C100.6 46.0022 102.073 44.3606 102.073 40.9256V39.593C101.497 40.2495 100.783 40.7701 99.982 41.1176C99.181 41.465 98.313 41.6306 97.4403 41.6024C92.9424 41.6024 89.6823 38.0651 89.6823 33.1971C89.6405 31.0129 90.4005 28.8893 91.8184 27.2276ZM144.285 24.5491H144.425C149.258 24.6154 152.253 28.0257 152.253 33.4833C152.253 33.7714 152.238 34.0615 152.207 34.3496C152.193 34.4772 152.132 34.595 152.037 34.6812C151.942 34.7674 151.818 34.8159 151.69 34.8178H140.198C140.268 37.2632 142.264 39.1987 144.681 39.1627C145.594 39.2162 146.499 38.9576 147.246 38.4291C147.993 37.9007 148.538 37.134 148.792 36.2547C148.839 36.1261 148.934 36.0206 149.057 35.9605C149.18 35.9004 149.321 35.8904 149.451 35.9325L151.737 36.7552C151.804 36.7771 151.865 36.8129 151.917 36.8603C151.968 36.9077 152.009 36.9656 152.037 37.0301C152.068 37.0924 152.087 37.1605 152.091 37.2302C152.096 37.2999 152.087 37.3698 152.063 37.4357C151.556 38.9843 150.563 40.3278 149.231 41.2667C147.899 42.2055 146.3 42.6896 144.671 42.6469C143.588 42.6565 142.514 42.4491 141.512 42.037C140.511 41.6248 139.602 41.0162 138.839 40.247C138 39.35 137.348 38.2959 136.918 37.1455C136.489 35.9951 136.291 34.7711 136.337 33.544C136.337 27.9101 140.374 24.5396 144.279 24.5396L144.285 24.5491ZM79.2649 24.5491C84.1855 24.5491 87.2428 27.9745 87.2428 33.4852C87.2428 33.7752 87.2277 34.0634 87.1954 34.3515C87.1827 34.4801 87.1228 34.5993 87.0272 34.6862C86.9316 34.7731 86.8071 34.8213 86.678 34.8216H75.1859C75.2522 37.2803 77.2671 39.2252 79.697 39.1741C80.6107 39.2287 81.5157 38.9704 82.263 38.4418C83.0103 37.9132 83.5553 37.1459 83.8083 36.2661C83.8535 36.1363 83.9482 36.0295 84.0717 35.9692C84.1953 35.9088 84.3377 35.8997 84.4679 35.9439L86.7614 36.7647C86.8283 36.7863 86.8898 36.8221 86.9418 36.8695C86.9938 36.9169 87.035 36.9749 87.0628 37.0395C87.1156 37.1696 87.1156 37.3152 87.0628 37.4452C86.5551 38.9936 85.5617 40.337 84.23 41.2758C82.8982 42.2146 81.2993 42.6987 79.6705 42.6564C78.5862 42.6666 77.5108 42.4595 76.5078 42.0473C75.5048 41.6351 74.5945 41.0262 73.8306 40.2565C72.9929 39.3587 72.3405 38.3046 71.9105 37.1544C71.4805 36.0043 71.2815 34.7806 71.3248 33.5534C71.3248 27.9195 75.364 24.5491 79.2687 24.5491H79.2649ZM61.859 24.5491C64.0653 24.5491 65.8527 25.0912 67.1757 26.1642C68.0666 26.8864 68.73 27.8608 69.0787 28.9622C69.1007 29.0568 69.0844 29.1563 69.0332 29.2389C69.0083 29.2797 68.9756 29.3151 68.9368 29.3431C68.8981 29.3711 68.8542 29.3911 68.8077 29.402L66.0668 30.3195C65.9455 30.3664 65.811 30.3664 65.6897 30.3195C65.6379 30.2948 65.592 30.2594 65.5551 30.2156C65.5181 30.1718 65.491 30.1206 65.4755 30.0654C65.2423 29.1669 64.4462 27.6579 61.8552 27.6579C60.045 27.6579 58.9608 28.7081 58.9608 29.728C58.9608 30.4029 59.3058 31.2749 60.9359 31.5895L63.9496 32.162C67.3141 32.8483 69.2417 34.7155 69.2417 37.3125V37.2689C69.2417 39.8508 66.7909 42.609 62.2361 42.609C56.9554 42.609 54.878 39.5797 54.497 37.794C54.4841 37.7012 54.5054 37.6069 54.5571 37.5287C54.6087 37.4505 54.6871 37.3939 54.7775 37.3694L57.6018 36.4784C57.6525 36.4688 57.7046 36.4688 57.7553 36.4784C57.8366 36.4772 57.9168 36.4968 57.9884 36.5353C58.0399 36.5605 58.0852 36.5966 58.1213 36.6411C58.1573 36.6856 58.1831 36.7375 58.1969 36.7931C58.5533 38.5106 60.0848 39.5342 62.2873 39.5342C64.3363 39.5342 65.2708 38.448 65.2708 37.4623C65.2708 36.4765 64.4387 35.7505 63.0095 35.4586L59.8403 34.833C56.8834 34.27 55.0448 32.4066 55.0448 29.9858C55.0448 27.0381 58.1685 24.5491 61.859 24.5491ZM178.274 19.772C178.419 19.7817 178.555 19.8466 178.653 19.9535C178.752 20.0603 178.806 20.2009 178.804 20.3464V25.04H181.777C181.92 25.052 182.054 25.1175 182.151 25.2236C182.248 25.3297 182.302 25.4686 182.302 25.6125V28.1148C182.303 28.2561 182.249 28.3923 182.15 28.4938C182.052 28.5954 181.918 28.654 181.777 28.657H178.804V37.0111C178.804 38.3949 179.345 38.9674 180.74 38.9674C181.058 38.9636 181.375 38.9352 181.691 38.8878C181.767 38.8747 181.845 38.8787 181.92 38.8993C181.994 38.92 182.063 38.9568 182.121 39.0072C182.235 39.1153 182.3 39.2632 182.302 39.4205V41.7673C182.303 41.8834 182.267 41.9968 182.198 42.0907C182.13 42.1846 182.033 42.254 181.922 42.2886C181.245 42.4815 180.542 42.5741 179.837 42.5635C176.858 42.5635 175.012 40.6223 175.012 37.4926V28.693H172.44C172.299 28.6837 172.167 28.6228 172.069 28.5219C171.971 28.4211 171.914 28.2875 171.909 28.147V25.641C171.908 25.4958 171.962 25.3557 172.06 25.2493C172.159 25.1428 172.295 25.0782 172.44 25.0685H173.109C173.916 25.0685 175.277 24.7822 175.277 22.8297V20.3464C175.276 20.2013 175.33 20.0611 175.429 19.9547C175.527 19.8483 175.663 19.7836 175.808 19.7739H178.272L178.274 19.772ZM122.491 27.3471C123.066 26.4503 123.866 25.72 124.812 25.2291C125.757 24.7381 126.815 24.5037 127.879 24.5491C130.817 24.5491 133.784 26.6457 133.784 31.2256V41.8242C133.778 41.9649 133.72 42.0985 133.622 42.1992C133.524 42.3 133.392 42.3609 133.251 42.3701H130.541C130.401 42.36 130.27 42.2987 130.172 42.198C130.075 42.0974 130.017 41.9643 130.012 41.8242V31.5649C130.012 30.2683 129.61 28.0807 126.898 28.0807C124.915 28.0807 123.508 29.6598 123.508 31.9497V41.8261C123.503 41.9663 123.445 42.0994 123.347 42.1998C123.249 42.3002 123.118 42.3609 122.978 42.3701H120.233C120.093 42.3604 119.961 42.2994 119.863 42.1986C119.765 42.0979 119.708 41.9646 119.702 41.8242V31.5649C119.706 30.2683 119.306 28.0693 116.594 28.0693C114.532 28.0693 113.14 29.6389 113.14 31.9744V41.8242C113.135 41.9646 113.077 42.0979 112.979 42.1986C112.881 42.2994 112.75 42.3604 112.61 42.3701H109.905C109.765 42.36 109.634 42.2986 109.537 42.1979C109.44 42.0972 109.383 41.9641 109.378 41.8242V25.5784C109.384 25.4386 109.44 25.3058 109.537 25.2051C109.635 25.1045 109.765 25.043 109.905 25.0325H112.509C112.795 25.0514 113.025 25.2865 113.04 25.5784V26.5566C113.616 25.9155 114.322 25.4047 115.111 25.0585C115.9 24.7123 116.754 24.5386 117.616 24.5491C118.607 24.5219 119.587 24.7687 120.447 25.2624C121.308 25.756 122.013 26.4773 122.491 27.3471ZM163.751 24.5491C164.619 24.5127 165.484 24.676 166.28 25.0263C167.075 25.3766 167.78 25.9047 168.34 26.5698C169.394 27.9777 169.929 29.707 169.854 31.4644V41.8242C169.849 41.9638 169.793 42.0966 169.696 42.1973C169.599 42.298 169.468 42.3595 169.329 42.3701H166.59C166.45 42.3597 166.319 42.2984 166.221 42.1979C166.123 42.0974 166.065 41.9645 166.058 41.8242V32.018C166.058 29.4531 164.867 28.147 162.608 28.147C162.114 28.1314 161.623 28.2332 161.177 28.4441C160.73 28.6551 160.339 28.969 160.038 29.3602C159.424 30.2567 159.114 31.3266 159.154 32.4123V41.8242C159.149 41.9646 159.091 42.0979 158.993 42.1986C158.895 42.2994 158.764 42.3604 158.624 42.3701H155.888C155.748 42.36 155.617 42.2989 155.519 42.1982C155.421 42.0975 155.364 41.9644 155.358 41.8242V25.5651C155.363 25.4246 155.42 25.2911 155.518 25.1902C155.616 25.0894 155.748 25.0285 155.888 25.0192H158.561C158.7 25.0293 158.83 25.0901 158.928 25.19C159.025 25.29 159.082 25.4221 159.088 25.5614V26.7063C159.65 26.0155 160.363 25.4621 161.171 25.0883C161.979 24.7145 162.86 24.53 163.751 24.5491ZM97.9104 28.183C95.2416 28.183 93.549 30.1052 93.549 33.1971C93.549 36.287 95.2208 38.2073 97.9085 38.2073C100.475 38.2073 102.202 36.1922 102.202 33.1971C102.202 30.2019 100.475 28.183 97.9104 28.183ZM79.2933 28.0276C78.3023 28.0157 77.3427 28.3747 76.6027 29.034C75.8628 29.6934 75.396 30.6055 75.2939 31.5914H83.3306C83.1411 29.3925 81.5982 28.0276 79.2933 28.0276ZM144.326 28.0276C143.337 28.018 142.379 28.378 141.641 29.0371C140.903 29.6962 140.437 30.607 140.334 31.5914H148.375C148.174 29.3925 146.642 28.0276 144.326 28.0276ZM59.0328 13.5637V19.0232H57.507V13.5637H55.3974V12.2406H61.1671V13.5637H59.0328ZM70.6823 19.0422H69.0958L67.642 14.0415L66.1616 19.0422H64.6073L62.6361 12.2368H64.2586L65.5096 17.139L66.916 12.2349H68.5385L69.9279 17.139L71.1372 12.2349H72.6289L70.6823 19.0403V19.0422ZM74.7366 19.0232V12.2406H76.2397V19.0232H74.7366ZM78.9407 19.0232V12.2406H80.4685V17.6887H83.0804V19.0232H78.9407ZM85.3531 19.0175V12.2349H86.8694V19.0175H85.3531ZM92.5387 19.1521C90.6869 19.1521 89.2027 17.8062 89.2027 15.6433C89.2027 13.4822 90.7077 12.123 92.552 12.123C94.3943 12.123 95.8842 13.469 95.8842 15.6433C95.8842 17.8157 94.3925 19.1521 92.5387 19.1521ZM92.5387 13.3628C91.3825 13.3628 90.7077 14.3296 90.7077 15.6319C90.7077 16.9323 91.4014 17.9105 92.5387 17.9105C93.676 17.9105 94.347 16.9191 94.347 15.6433C94.347 14.3656 93.6703 13.3628 92.5501 13.3628H92.5387Z" fill="#7F7F8A"/>
</g>
<defs>
<clipPath id="clip0_95_1314">
<rect width="197" height="60" fill="white"/>
</clipPath>
</defs>
</svg>
