<svg width="25" height="24" viewBox="0 0 25 24" fill="none" xmlns="http://www.w3.org/2000/svg">
<path d="M18.5 0H6.5C3.18629 0 0.5 2.68629 0.5 6V18C0.5 21.3137 3.18629 24 6.5 24H18.5C21.8137 24 24.5 21.3137 24.5 18V6C24.5 2.68629 21.8137 0 18.5 0Z" fill="white"/>
<mask id="mask0_139_3986" style="mask-type:luminance" maskUnits="userSpaceOnUse" x="6" y="6" width="13" height="12">
<path d="M6.5 6H18.5V18H6.5V6Z" fill="white"/>
</mask>
<g mask="url(#mask0_139_3986)">
<path d="M18.5 8.27914C18.0507 8.4781 17.574 8.60855 17.086 8.66614C17.6005 8.35882 17.9855 7.87465 18.169 7.30414C17.6856 7.59116 17.1566 7.7934 16.605 7.90214C16.2339 7.50707 15.743 7.24536 15.2081 7.15756C14.6733 7.06975 14.1244 7.16073 13.6466 7.41642C13.1687 7.67211 12.7884 8.07824 12.5647 8.5719C12.3409 9.06557 12.2862 9.61923 12.409 10.1471C11.4304 10.0979 10.473 9.84354 9.59907 9.40045C8.72511 8.95736 7.95408 8.33547 7.336 7.57514C7.02149 8.11701 6.92512 8.7583 7.06648 9.36868C7.20783 9.97905 7.57631 10.5127 8.097 10.8611C7.70608 10.8489 7.32377 10.7433 6.982 10.5531C6.97502 11.1269 7.16849 11.6851 7.52904 12.1314C7.8896 12.5778 8.39462 12.8843 8.957 12.9981C8.59444 13.0969 8.21411 13.1116 7.845 13.0411C8.00234 13.5302 8.30864 13.9579 8.72104 14.2643C9.13343 14.5708 9.63131 14.7406 10.145 14.7501C9.1131 15.5596 7.80215 15.9264 6.5 15.7701C7.62576 16.4934 8.93592 16.8774 10.274 16.8761C14.845 16.8761 17.427 13.0161 17.272 9.55314C17.7537 9.20466 18.1695 8.77327 18.5 8.27914Z" fill="#131933"/>
</g>
</svg>
